<?xml version="1.0" standalone="no"?>
<!DOCTYPE svg PUBLIC "-//W3C//DTD SVG 20010904//EN"
 "http://www.w3.org/TR/2001/REC-SVG-20010904/DTD/svg10.dtd">
<svg version="1.0" xmlns="http://www.w3.org/2000/svg"
 width="349.000000pt" height="292.000000pt" viewBox="0 0 349.000000 292.000000"
 preserveAspectRatio="xMidYMid meet">

<g transform="translate(0.000000,292.000000) scale(0.100000,-0.100000)"
fill="#000000" stroke="none">
<path d="M90 1455 l0 -1375 270 0 270 0 0 1375 0 1375 -270 0 -270 0 0 -1375z"/>
<path d="M890 2495 l0 -335 1260 0 1260 0 0 335 0 335 -1260 0 -1260 0 0 -335z"/>
<path d="M890 1415 l0 -345 105 0 105 0 0 345 0 345 -105 0 -105 0 0 -345z"/>
<path d="M2540 1415 l0 -345 105 0 105 0 0 345 0 345 -105 0 -105 0 0 -345z"/>
<path d="M1180 1425 l0 -217 128 4 c143 5 191 21 235 80 81 110 50 259 -66
320 -35 18 -63 22 -169 26 l-128 4 0 -217z m252 105 c54 -42 64 -147 17 -196
-26 -28 -85 -47 -132 -42 l-32 3 -3 128 -3 127 64 0 c49 0 70 -5 89 -20z"/>
<path d="M1650 1425 l0 -215 170 0 170 0 0 40 0 39 -117 3 -118 3 -3 43 -3 42
105 0 106 0 0 45 0 45 -106 0 -105 0 3 43 3 42 113 3 112 3 0 39 0 40 -165 0
-165 0 0 -215z"/>
<path d="M2021 1632 c2 -5 40 -102 84 -215 l80 -207 55 0 55 0 77 198 c42 108
80 205 84 215 5 15 -1 17 -47 17 l-54 0 -54 -155 c-29 -86 -56 -153 -60 -150
-3 4 -29 73 -57 153 l-52 147 -57 3 c-31 2 -55 -1 -54 -6z"/>
<path d="M890 415 l0 -335 1260 0 1260 0 0 335 0 335 -1260 0 -1260 0 0 -335z"/>
</g>
</svg>
